<svg xmlns="http://www.w3.org/2000/svg" viewBox="0 0 400 200">
  <defs>
    <linearGradient id="bg-lineage" x1="0%" y1="0%" x2="100%" y2="100%">
      <stop offset="0%" style="stop-color:#003D82"/>
      <stop offset="100%" style="stop-color:#00C7B1"/>
    </linearGradient>
  </defs>
  <rect width="400" height="200" fill="url(#bg-lineage)"/>
  <!-- Lineage nodes -->
  <circle cx="60" cy="100" r="20" fill="rgba(255,255,255,0.9)" stroke="#003D82" stroke-width="2"/>
  <circle cx="160" cy="60" r="16" fill="rgba(255,255,255,0.8)" stroke="#003D82" stroke-width="2"/>
  <circle cx="160" cy="140" r="16" fill="rgba(255,255,255,0.8)" stroke="#003D82" stroke-width="2"/>
  <circle cx="260" cy="80" r="18" fill="rgba(255,255,255,0.85)" stroke="#00C7B1" stroke-width="2"/>
  <circle cx="260" cy="130" r="14" fill="rgba(255,255,255,0.75)" stroke="#00C7B1" stroke-width="2"/>
  <circle cx="340" cy="100" r="22" fill="rgba(255,255,255,0.9)" stroke="#00C7B1" stroke-width="3"/>
  <!-- Connecting lines -->
  <path d="M80 90 Q120 60 144 60" stroke="rgba(255,255,255,0.6)" fill="none" stroke-width="2"/>
  <path d="M80 110 Q120 140 144 140" stroke="rgba(255,255,255,0.6)" fill="none" stroke-width="2"/>
  <path d="M176 60 Q200 70 242 80" stroke="rgba(255,255,255,0.6)" fill="none" stroke-width="2"/>
  <path d="M176 140 Q200 130 246 130" stroke="rgba(255,255,255,0.6)" fill="none" stroke-width="2"/>
  <path d="M278 85 Q300 90 318 95" stroke="rgba(255,255,255,0.6)" fill="none" stroke-width="2"/>
  <path d="M274 125 Q300 115 318 105" stroke="rgba(255,255,255,0.6)" fill="none" stroke-width="2"/>
  <!-- Field icons inside nodes -->
  <rect x="50" y="95" width="20" height="3" rx="1" fill="#003D82"/>
  <rect x="50" y="100" width="15" height="3" rx="1" fill="#003D82"/>
  <rect x="50" y="105" width="18" height="3" rx="1" fill="#003D82"/>
  <rect x="330" y="93" width="20" height="3" rx="1" fill="#00C7B1"/>
  <rect x="330" y="99" width="16" height="3" rx="1" fill="#00C7B1"/>
  <rect x="330" y="105" width="22" height="3" rx="1" fill="#00C7B1"/>
</svg>
